<svg xmlns="http://www.w3.org/2000/svg" width="152.728" height="16.178" viewBox="0 0 152.728 16.178"><defs><style>.a{fill:#fff;}</style></defs><g transform="translate(-172.445 -124.201)"><g transform="translate(200.343 126.448)"><path class="a" d="M379.841,144.442c0,.2,0,.8-1.255.8h-6.8V142.4h6.8c1.255,0,1.255.6,1.255.8Zm-8.059,3.227h6.8a2.094,2.094,0,0,1,.991.157.957.957,0,0,1,.341.872v.988a.956.956,0,0,1-.337.869,2.163,2.163,0,0,1-.994.159h-6.8Zm9.448-1.2a2.11,2.11,0,0,0,1.7-2.207v-1.6c0-1.772-1.035-2.67-3.075-2.67H368.518v13.344h10.523c2.646,0,3.988-.907,3.988-2.695v-1.672a2.356,2.356,0,0,0-1.8-2.5" transform="translate(-368.518 -139.998)"/><path class="a" d="M494.247,147.851H488.98l2.68-4.894ZM493.313,140h-3.1l-7.552,13.345h3.357l1.519-2.862h8.12l1.57,2.862h3.738l-7.616-13.275Z" transform="translate(-466.422 -139.998)"/><path class="a" d="M638.459,147c0,.26.034.891.1,1.875a16.783,16.783,0,0,0-1.243-1.144l-9.2-7.7-.038-.031h-2.264v13.344h3.01v-7.2c0-.451-.03-1.015-.088-1.68a9.7,9.7,0,0,0,.826.772l9.6,8.08.039.033h2.264V140h-3.01Z" transform="translate(-589.209 -140)"/><path class="a" d="M775.764,150.612h-9.757V142.6h9.757ZM775.7,140h-9.626a3.916,3.916,0,0,0-2.651.67,3.424,3.424,0,0,0-.728,2.557v6.89a3.42,3.42,0,0,0,.728,2.557,3.916,3.916,0,0,0,2.651.67H775.7a3.914,3.914,0,0,0,2.651-.67,3.419,3.419,0,0,0,.728-2.557v-6.89a3.423,3.423,0,0,0-.728-2.557A3.916,3.916,0,0,0,775.7,140" transform="translate(-706.608 -139.998)"/><path class="a" d="M908.646,142.5h6.7a2.069,2.069,0,0,1,.918.134.825.825,0,0,1,.317.774v1.582a.828.828,0,0,1-.311.772,2.06,2.06,0,0,1-.923.136h-6.7Zm8.073,5.9c2.043,0,3.078-.9,3.078-2.67v-3.064c0-1.772-1.035-2.67-3.078-2.67H905.382v13.344h3.264V148.4h2.7l5.232,4.9.039.037h4.8l-6.034-4.939Z" transform="translate(-828.995 -139.999)"/><path class="a" d="M1024.411,142.6h6v10.741h3.314V142.6h6.029V140h-15.346Z" transform="translate(-931.088 -139.996)"/><path class="a" d="M1154.008,150.61v-2.969h6.2v-2.5h-6.2V142.5h10.1V140h-13.412v13.345h13.539V150.61Z" transform="translate(-1039.403 -139.996)"/></g><g transform="translate(172.445 124.201)"><path class="a" d="M200.877,132.067l2.246-6.153v6.15c.33.01.666.023,1,.023,6.155,0,11.149-1.649,11.149-3.87s-4.994-4.017-11.149-4.017-11.159,1.8-11.159,4.017c0,1.815,3.34,3.348,7.91,3.849Z" transform="translate(-190.047 -124.201)"/><path class="a" d="M183.108,182.7c-5.926.1-10.663,1.859-10.663,4.021,0,1.8,3.286,3.322,7.806,3.834l2.857-7.855Z" transform="translate(-172.445 -174.376)"/><path class="a" d="M264.407,182.678v7.858c5.238-.33,9.223-1.853,9.223-3.834s-3.985-3.694-9.223-4.024Z" transform="translate(-251.322 -174.358)"/></g></g></svg>