<svg xmlns="http://www.w3.org/2000/svg" width="240.454" height="40" viewBox="0 0 240.454 40">
  <g id="Grupo_9" data-name="Grupo 9" transform="translate(-113.089 -468.983)">
    <path id="Trazado_2" data-name="Trazado 2" d="M762.1,531.93a3.02,3.02,0,0,0,1.79-.465,1.537,1.537,0,0,0,.653-1.312v-.026a1.429,1.429,0,0,0-.667-1.257,3.559,3.559,0,0,0-1.976-.453h-3.133v3.512Zm-.393-4.518a2.827,2.827,0,0,0,1.65-.445,1.529,1.529,0,0,0,.633-1.325v-.034a1.41,1.41,0,0,0-.573-1.17,2.6,2.6,0,0,0-1.629-.44h-3.022v3.414Zm-4.059-4.424h4.225a4.576,4.576,0,0,1,1.509.233,2.949,2.949,0,0,1,1.084.645,2.226,2.226,0,0,1,.64,1.591v.033a2.478,2.478,0,0,1-.134.859,2.1,2.1,0,0,1-.359.65,2.585,2.585,0,0,1-.5.466,3.52,3.52,0,0,1-.574.319,4.866,4.866,0,0,1,.833.334,3.083,3.083,0,0,1,.673.492,2.286,2.286,0,0,1,.449.678,2.25,2.25,0,0,1,.176.906v.025a2.456,2.456,0,0,1-.261,1.145,2.382,2.382,0,0,1-.725.86,3.477,3.477,0,0,1-1.145.531,5.459,5.459,0,0,1-1.477.185h-4.411Z" transform="translate(-463.035 -38.796)" fill="#c00020"/>
    <path id="Trazado_3" data-name="Trazado 3" d="M794.4,522.988h7.191V524h-6.074v3.427h5.436v1.011h-5.436v3.492h6.146v1.01H794.4Z" transform="translate(-489.437 -38.796)" fill="#c00020"/>
    <path id="Trazado_4" data-name="Trazado 4" d="M832.183,524.025h-3.342v-1.037h7.8v1.037h-3.34v8.915h-1.122Z" transform="translate(-514.181 -38.796)" fill="#c00020"/>
    <path id="Trazado_5" data-name="Trazado 5" d="M865.217,522.988h7.191V524h-6.074v3.427h5.436v1.011h-5.436v3.492h6.147v1.01h-7.263Z" transform="translate(-540.313 -38.796)" fill="#c00020"/>
    <path id="Trazado_6" data-name="Trazado 6" d="M903.008,524.025h-3.34v-1.037h7.8v1.037h-3.34v8.915h-1.125Z" transform="translate(-565.062 -38.796)" fill="#c00020"/>
    <path id="Trazado_7" data-name="Trazado 7" d="M935.491,522.731l-4.537,10.025H932.1l.415-.919,1.216-2.72h-.006l1.647-3.677.053-.119.575-1.28.647,1.453.02.046,1.6,3.578h-.013l.448,1.011h0l1.164,2.628h1.211l-4.536-10.025Z" transform="translate(-587.537 -38.611)" fill="#c00020"/>
    <path id="Trazado_8" data-name="Trazado 8" d="M519.77,522.69h1.138l3.619,5.428,3.626-5.428h1.138v9.952h-1.126v-8.063l-3.617,5.337h-.061l-3.625-5.325v8.051H519.77Z" transform="translate(-292.151 -38.582)" fill="#c00020"/>
    <path id="Trazado_9" data-name="Trazado 9" d="M656.481,532.552a4.909,4.909,0,0,1-4.612-3.114,5.31,5.31,0,0,1-.379-2.01V527.4a5.239,5.239,0,0,1,.379-1.987,5.164,5.164,0,0,1,1.045-1.645,4.955,4.955,0,0,1,1.589-1.11,5.048,5.048,0,0,1,2.023-.4,5.885,5.885,0,0,1,1.229.112,4.921,4.921,0,0,1,1.012.32,4.5,4.5,0,0,1,.872.491,8.244,8.244,0,0,1,.765.654l-.765.825a6.471,6.471,0,0,0-1.371-.987,3.806,3.806,0,0,0-1.756-.386,3.781,3.781,0,0,0-2.754,1.185,4.147,4.147,0,0,0-.812,1.3,4.394,4.394,0,0,0-.286,1.6v.027a4.441,4.441,0,0,0,.286,1.616,4.111,4.111,0,0,0,.812,1.3,3.779,3.779,0,0,0,1.225.878,3.634,3.634,0,0,0,1.529.321,3.84,3.84,0,0,0,1.763-.38,6.3,6.3,0,0,0,1.449-1.059l.74.725a7.569,7.569,0,0,1-.8.72,4.949,4.949,0,0,1-.908.544,4.581,4.581,0,0,1-1.037.353,5.376,5.376,0,0,1-1.235.134" transform="translate(-386.776 -38.273)" fill="#c00020"/>
    <path id="Trazado_10" data-name="Trazado 10" d="M698.062,531.514a3.776,3.776,0,0,0,1.569-.321,3.613,3.613,0,0,0,1.231-.878,3.948,3.948,0,0,0,.8-1.29,4.326,4.326,0,0,0,.293-1.6V527.4a4.337,4.337,0,0,0-.293-1.6,3.889,3.889,0,0,0-2.063-2.183,3.685,3.685,0,0,0-1.568-.333,3.8,3.8,0,0,0-1.569.326,3.622,3.622,0,0,0-1.231.871,4.273,4.273,0,0,0-.805,1.29,4.377,4.377,0,0,0-.287,1.6v.027a4.344,4.344,0,0,0,.287,1.6,4.087,4.087,0,0,0,.817,1.3,3.812,3.812,0,0,0,1.245.878,3.748,3.748,0,0,0,1.571.334m-.027,1.038a4.947,4.947,0,0,1-3.667-1.531,5.027,5.027,0,0,1-1.032-1.637,5.244,5.244,0,0,1-.365-1.956V527.4a5.336,5.336,0,0,1,.373-1.962,5.178,5.178,0,0,1,6.787-2.774,4.9,4.9,0,0,1,2.633,2.753,5.351,5.351,0,0,1,.359,1.957.02.02,0,0,1,0,.027,5.219,5.219,0,0,1-1.4,3.606,5.13,5.13,0,0,1-1.61,1.125,5.037,5.037,0,0,1-2.076.42" transform="translate(-416.575 -38.273)" fill="#c00020"/>
    <path id="Trazado_11" data-name="Trazado 11" d="M564.324,531.694l1.217-2.721h-.007l1.649-3.675.052-.12.576-1.28.647,1.451.02.045,1.594,3.58h-.012l.449,1.01h0l1.163,2.628h1.212l-4.539-10.025H567.3l-4.537,10.025h1.151Z" transform="translate(-323.035 -38.507)" fill="#c00020"/>
    <path id="Trazado_12" data-name="Trazado 12" d="M614.879,528.735a4.279,4.279,0,0,0,1.085-.332,3.062,3.062,0,0,0,.857-.6,2.55,2.55,0,0,0,.567-.851,3.1,3.1,0,0,0,.193-1.119v-.026a3.089,3.089,0,0,0-.193-1.1,2.542,2.542,0,0,0-.572-.865,3.189,3.189,0,0,0-1.185-.732,4.671,4.671,0,0,0-1.643-.266H609.71V532.8h1.118v-8.914h3.08a2.987,2.987,0,0,1,1.881.519,1.719,1.719,0,0,1,.673,1.442v.029a1.916,1.916,0,0,1-.192.863,1.978,1.978,0,0,1-.541.639,2.616,2.616,0,0,1-.811.4,3.507,3.507,0,0,1-1.024.142h-.935l3.6,4.875h1.377Z" transform="translate(-356.762 -38.695)" fill="#c00020"/>
    <path id="Trazado_13" data-name="Trazado 13" d="M435.679,530.556a3.154,3.154,0,0,0,1.873-.487,1.6,1.6,0,0,0,.684-1.372v-.027a1.5,1.5,0,0,0-.7-1.317,3.713,3.713,0,0,0-2.07-.474h-3.28v3.677Zm-.411-4.729a2.964,2.964,0,0,0,1.727-.468,1.6,1.6,0,0,0,.661-1.386v-.034a1.479,1.479,0,0,0-.6-1.227,2.723,2.723,0,0,0-1.705-.458h-3.162v3.574Zm-4.251-4.632h4.425a4.794,4.794,0,0,1,1.58.243,3.119,3.119,0,0,1,1.137.676,2.332,2.332,0,0,1,.669,1.666v.035a2.561,2.561,0,0,1-.142.9,2.169,2.169,0,0,1-.375.682,2.606,2.606,0,0,1-.529.489,3.631,3.631,0,0,1-.6.334,5.277,5.277,0,0,1,.871.348,3.267,3.267,0,0,1,.7.514,2.407,2.407,0,0,1,.472.712,2.344,2.344,0,0,1,.184.948v.028a2.592,2.592,0,0,1-.273,1.2,2.466,2.466,0,0,1-.759.9,3.6,3.6,0,0,1-1.2.557,5.707,5.707,0,0,1-1.548.2h-4.619Z" transform="translate(-228.393 -37.508)" fill="#c00020"/>
    <path id="Trazado_14" data-name="Trazado 14" d="M474.207,522.089l-3.853,5.892v4.086h-1.309v-4.086l-3.89-5.892h1.588l2.352,3.728c.269.424.483.784.645,1.082.17-.318.375-.668.614-1.053l2.346-3.758Z" transform="translate(-252.917 -38.15)" fill="#c00020"/>
    <path id="Trazado_15" data-name="Trazado 15" d="M145.906,469l-13.672,20.469L118.588,469h-5.5V508.99h5.648v-29.6l13.46,19.756,13.43-19.8V508.99h5.649V469Z" transform="translate(0 -0.01)" fill="#c00020"/>
    <path id="Trazado_16" data-name="Trazado 16" d="M294.94,489.663a15.748,15.748,0,0,1-4.506,3.667,5.664,5.664,0,0,1-3.791,9.873H270V474.763h13.348a5.664,5.664,0,0,1,.4,11.315h-6.623v5.777h6.694l.08,0a12.626,12.626,0,0,0,9.372-5.713l.011-.021a11.281,11.281,0,0,0,1.5-5.107s.014-.412.014-.581a11.455,11.455,0,0,0-11.442-11.444H264.081v39.99l23.6.01.4-.037.045,0a11.483,11.483,0,0,0,6.811-19.278" transform="translate(-108.47 0)" fill="#c00020"/>
  </g>
</svg>
